<svg width="1440" height="623" viewBox="0 0 1440 623" fill="none" xmlns="http://www.w3.org/2000/svg">
<rect width="1440" height="623" fill="#F5FFF1"/>
<path d="M233.711 235.562V264H227.344V235.562H233.711ZM244.902 247.555V252.477H231.934V247.555H244.902ZM246.152 235.562V240.504H231.934V235.562H246.152ZM268.594 259.078V264H253.457V259.078H268.594ZM255.625 235.562V264H249.258V235.562H255.625ZM266.641 247.008V251.773H253.457V247.008H266.641ZM268.613 235.562V240.504H253.457V235.562H268.613ZM278.496 235.562V264H272.148V235.562H278.496ZM296.289 235.562V264H289.941V235.562H296.289ZM304.941 235.562V240.504H281.465V235.562H304.941ZM331.25 249.156V250.426C331.25 252.587 330.951 254.527 330.352 256.246C329.766 257.965 328.926 259.43 327.832 260.641C326.751 261.852 325.462 262.783 323.965 263.434C322.48 264.072 320.833 264.391 319.023 264.391C317.214 264.391 315.56 264.072 314.062 263.434C312.565 262.783 311.263 261.852 310.156 260.641C309.062 259.43 308.216 257.965 307.617 256.246C307.018 254.527 306.719 252.587 306.719 250.426V249.156C306.719 246.995 307.018 245.055 307.617 243.336C308.216 241.604 309.056 240.133 310.137 238.922C311.23 237.711 312.526 236.786 314.023 236.148C315.521 235.497 317.174 235.172 318.984 235.172C320.794 235.172 322.448 235.497 323.945 236.148C325.443 236.786 326.732 237.711 327.812 238.922C328.906 240.133 329.753 241.604 330.352 243.336C330.951 245.055 331.25 246.995 331.25 249.156ZM324.824 250.426V249.117C324.824 247.672 324.694 246.396 324.434 245.289C324.173 244.169 323.796 243.232 323.301 242.477C322.806 241.721 322.194 241.155 321.465 240.777C320.736 240.387 319.909 240.191 318.984 240.191C318.021 240.191 317.181 240.387 316.465 240.777C315.749 241.155 315.143 241.721 314.648 242.477C314.167 243.232 313.796 244.169 313.535 245.289C313.288 246.396 313.164 247.672 313.164 249.117V250.426C313.164 251.858 313.288 253.134 313.535 254.254C313.796 255.361 314.173 256.298 314.668 257.066C315.163 257.835 315.768 258.414 316.484 258.805C317.214 259.195 318.06 259.391 319.023 259.391C319.948 259.391 320.768 259.195 321.484 258.805C322.214 258.414 322.826 257.835 323.32 257.066C323.815 256.298 324.186 255.361 324.434 254.254C324.694 253.134 324.824 251.858 324.824 250.426ZM356.328 254.117H349.18V249.176H356.328C357.383 249.176 358.229 249 358.867 248.648C359.518 248.297 359.993 247.815 360.293 247.203C360.605 246.578 360.762 245.875 360.762 245.094C360.762 244.286 360.605 243.538 360.293 242.848C359.993 242.145 359.518 241.578 358.867 241.148C358.229 240.719 357.383 240.504 356.328 240.504H351.484V264H345.117V235.562H356.328C358.594 235.562 360.534 235.973 362.148 236.793C363.776 237.613 365.02 238.74 365.879 240.172C366.751 241.591 367.188 243.219 367.188 245.055C367.188 246.891 366.751 248.486 365.879 249.84C365.02 251.194 363.776 252.249 362.148 253.004C360.534 253.746 358.594 254.117 356.328 254.117ZM379.512 240.973L372.168 264H365.371L375.898 235.562H380.195L379.512 240.973ZM385.605 264L378.242 240.973L377.48 235.562H381.836L392.402 264H385.605ZM385.293 253.414V258.336H370.469V253.414H385.293ZM394.766 235.562H405.684C407.858 235.562 409.74 235.888 411.328 236.539C412.93 237.19 414.16 238.154 415.02 239.43C415.879 240.706 416.309 242.281 416.309 244.156C416.309 245.719 416.055 247.047 415.547 248.141C415.039 249.234 414.323 250.139 413.398 250.855C412.487 251.572 411.419 252.151 410.195 252.594L408.125 253.727H398.828L398.789 248.785H405.703C406.654 248.785 407.441 248.616 408.066 248.277C408.691 247.939 409.16 247.464 409.473 246.852C409.798 246.227 409.961 245.497 409.961 244.664C409.961 243.805 409.798 243.062 409.473 242.438C409.147 241.812 408.665 241.337 408.027 241.012C407.402 240.673 406.621 240.504 405.684 240.504H401.133V264H394.766V235.562ZM410.508 264L404.121 251.363L410.84 251.344L417.324 263.707V264H410.508ZM432.441 240.973L425.098 264H418.301L428.828 235.562H433.125L432.441 240.973ZM438.535 264L431.172 240.973L430.41 235.562H434.766L445.332 264H438.535ZM438.223 253.414V258.336H423.398V253.414H438.223ZM469.805 235.562V264H463.457V235.562H469.805ZM478.457 235.562V240.504H454.98V235.562H478.457ZM500.938 259.078V264H485.801V259.078H500.938ZM487.969 235.562V264H481.602V235.562H487.969ZM498.984 247.008V251.773H485.801V247.008H498.984ZM500.957 235.562V240.504H485.801V235.562H500.957ZM239.16 287.973L231.816 311H225.02L235.547 282.562H239.844L239.16 287.973ZM245.254 311L237.891 287.973L237.129 282.562H241.484L252.051 311H245.254ZM244.941 300.414V305.336H230.117V300.414H244.941ZM265.84 302.172V282.562H272.168V302.172C272.168 304.073 271.738 305.714 270.879 307.094C270.033 308.461 268.88 309.522 267.422 310.277C265.977 311.02 264.342 311.391 262.52 311.391C260.645 311.391 258.978 311.078 257.52 310.453C256.061 309.815 254.915 308.845 254.082 307.543C253.262 306.228 252.852 304.555 252.852 302.523H259.219C259.219 303.526 259.342 304.32 259.59 304.906C259.85 305.479 260.228 305.883 260.723 306.117C261.217 306.352 261.816 306.469 262.52 306.469C263.197 306.469 263.783 306.306 264.277 305.98C264.772 305.642 265.156 305.154 265.43 304.516C265.703 303.865 265.84 303.083 265.84 302.172ZM292.402 282.562H298.77V301.234C298.77 303.448 298.301 305.31 297.363 306.82C296.439 308.331 295.15 309.47 293.496 310.238C291.842 311.007 289.928 311.391 287.754 311.391C285.566 311.391 283.639 311.007 281.973 310.238C280.319 309.47 279.017 308.331 278.066 306.82C277.129 305.31 276.66 303.448 276.66 301.234V282.562H283.047V301.234C283.047 302.458 283.229 303.461 283.594 304.242C283.971 305.01 284.512 305.577 285.215 305.941C285.918 306.293 286.764 306.469 287.754 306.469C288.743 306.469 289.583 306.293 290.273 305.941C290.977 305.577 291.504 305.01 291.855 304.242C292.22 303.461 292.402 302.458 292.402 301.234V282.562ZM312.324 311H306.074L306.113 306.078H312.324C313.743 306.078 314.941 305.753 315.918 305.102C316.895 304.438 317.637 303.461 318.145 302.172C318.652 300.87 318.906 299.288 318.906 297.426V296.117C318.906 294.711 318.763 293.474 318.477 292.406C318.19 291.326 317.767 290.421 317.207 289.691C316.647 288.962 315.951 288.415 315.117 288.051C314.297 287.686 313.353 287.504 312.285 287.504H305.957V282.562H312.285C314.212 282.562 315.97 282.888 317.559 283.539C319.16 284.19 320.54 285.121 321.699 286.332C322.871 287.543 323.776 288.975 324.414 290.629C325.052 292.283 325.371 294.125 325.371 296.156V297.426C325.371 299.444 325.052 301.286 324.414 302.953C323.776 304.607 322.871 306.039 321.699 307.25C320.54 308.448 319.167 309.372 317.578 310.023C315.99 310.674 314.238 311 312.324 311ZM309.688 282.562V311H303.32V282.562H309.688ZM340.645 287.973L333.301 311H326.504L337.031 282.562H341.328L340.645 287.973ZM346.738 311L339.375 287.973L338.613 282.562H342.969L353.535 311H346.738ZM346.426 300.414V305.336H331.602V300.414H346.426ZM355.898 282.562H366.816C368.991 282.562 370.872 282.888 372.461 283.539C374.062 284.19 375.293 285.154 376.152 286.43C377.012 287.706 377.441 289.281 377.441 291.156C377.441 292.719 377.188 294.047 376.68 295.141C376.172 296.234 375.456 297.139 374.531 297.855C373.62 298.572 372.552 299.151 371.328 299.594L369.258 300.727H359.961L359.922 295.785H366.836C367.786 295.785 368.574 295.616 369.199 295.277C369.824 294.939 370.293 294.464 370.605 293.852C370.931 293.227 371.094 292.497 371.094 291.664C371.094 290.805 370.931 290.062 370.605 289.438C370.28 288.812 369.798 288.337 369.16 288.012C368.535 287.673 367.754 287.504 366.816 287.504H362.266V311H355.898V282.562ZM371.641 311L365.254 298.363L371.973 298.344L378.457 310.707V311H371.641ZM403.535 287.973L396.191 311H389.395L399.922 282.562H404.219L403.535 287.973ZM409.629 311L402.266 287.973L401.504 282.562H405.859L416.426 311H409.629ZM409.316 300.414V305.336H394.492V300.414H409.316ZM431.797 282.562H437.07L443.906 302.895L450.723 282.562H455.996L446.035 311H441.758L431.797 282.562ZM428.75 282.562H434.121L435.117 303.637V311H428.75V282.562ZM453.672 282.562H459.062V311H452.676V303.637L453.672 282.562ZM475.957 287.973L468.613 311H461.816L472.344 282.562H476.641L475.957 287.973ZM482.051 311L474.688 287.973L473.926 282.562H478.281L488.848 311H482.051ZM481.738 300.414V305.336H466.914V300.414H481.738ZM514.668 282.562V311H508.32L497.578 292.621V311H491.211V282.562H497.578L508.34 300.941V282.562H514.668ZM532.031 282.562V311H525.684V282.562H532.031ZM540.684 282.562V287.504H517.207V282.562H540.684ZM563.164 306.078V311H548.027V306.078H563.164ZM550.195 282.562V311H543.828V282.562H550.195ZM561.211 294.008V298.773H548.027V294.008H561.211ZM563.184 282.562V287.504H548.027V282.562H563.184ZM566.289 282.562H577.207C579.382 282.562 581.263 282.888 582.852 283.539C584.453 284.19 585.684 285.154 586.543 286.43C587.402 287.706 587.832 289.281 587.832 291.156C587.832 292.719 587.578 294.047 587.07 295.141C586.562 296.234 585.846 297.139 584.922 297.855C584.01 298.572 582.943 299.151 581.719 299.594L579.648 300.727H570.352L570.312 295.785H577.227C578.177 295.785 578.965 295.616 579.59 295.277C580.215 294.939 580.684 294.464 580.996 293.852C581.322 293.227 581.484 292.497 581.484 291.664C581.484 290.805 581.322 290.062 580.996 289.438C580.671 288.812 580.189 288.337 579.551 288.012C578.926 287.673 578.145 287.504 577.207 287.504H572.656V311H566.289V282.562ZM582.031 311L575.645 298.363L582.363 298.344L588.848 310.707V311H582.031ZM242.91 329.562H249.277V348.234C249.277 350.448 248.809 352.31 247.871 353.82C246.947 355.331 245.658 356.47 244.004 357.238C242.35 358.007 240.436 358.391 238.262 358.391C236.074 358.391 234.147 358.007 232.48 357.238C230.827 356.47 229.525 355.331 228.574 353.82C227.637 352.31 227.168 350.448 227.168 348.234V329.562H233.555V348.234C233.555 349.458 233.737 350.461 234.102 351.242C234.479 352.01 235.02 352.577 235.723 352.941C236.426 353.293 237.272 353.469 238.262 353.469C239.251 353.469 240.091 353.293 240.781 352.941C241.484 352.577 242.012 352.01 242.363 351.242C242.728 350.461 242.91 349.458 242.91 348.234V329.562ZM256.875 329.562H262.148L268.984 349.895L275.801 329.562H281.074L271.113 358H266.836L256.875 329.562ZM253.828 329.562H259.199L260.195 350.637V358H253.828V329.562ZM278.75 329.562H284.141V358H277.754V350.637L278.75 329.562ZM301.035 334.973L293.691 358H286.895L297.422 329.562H301.719L301.035 334.973ZM307.129 358L299.766 334.973L299.004 329.562H303.359L313.926 358H307.129ZM306.816 347.414V352.336H291.992V347.414H306.816ZM336.758 351.691L343.086 329.562H350.176L340.43 358H335.801L336.758 351.691ZM330.996 329.562L337.305 351.691L338.301 358H333.613L323.926 329.562H330.996ZM359.316 329.562V358H352.969V329.562H359.316ZM373.457 358H367.207L367.246 353.078H373.457C374.876 353.078 376.074 352.753 377.051 352.102C378.027 351.438 378.77 350.461 379.277 349.172C379.785 347.87 380.039 346.288 380.039 344.426V343.117C380.039 341.711 379.896 340.474 379.609 339.406C379.323 338.326 378.9 337.421 378.34 336.691C377.78 335.962 377.083 335.415 376.25 335.051C375.43 334.686 374.486 334.504 373.418 334.504H367.09V329.562H373.418C375.345 329.562 377.103 329.888 378.691 330.539C380.293 331.19 381.673 332.121 382.832 333.332C384.004 334.543 384.909 335.975 385.547 337.629C386.185 339.283 386.504 341.125 386.504 343.156V344.426C386.504 346.444 386.185 348.286 385.547 349.953C384.909 351.607 384.004 353.039 382.832 354.25C381.673 355.448 380.299 356.372 378.711 357.023C377.122 357.674 375.371 358 373.457 358ZM370.82 329.562V358H364.453V329.562H370.82ZM401.777 334.973L394.434 358H387.637L398.164 329.562H402.461L401.777 334.973ZM407.871 358L400.508 334.973L399.746 329.562H404.102L414.668 358H407.871ZM407.559 347.414V352.336H392.734V347.414H407.559ZM441.738 350.5C441.738 350.018 441.667 349.589 441.523 349.211C441.38 348.82 441.12 348.462 440.742 348.137C440.365 347.811 439.831 347.486 439.141 347.16C438.451 346.822 437.546 346.477 436.426 346.125C435.15 345.708 433.932 345.24 432.773 344.719C431.628 344.185 430.605 343.566 429.707 342.863C428.809 342.16 428.099 341.34 427.578 340.402C427.07 339.465 426.816 338.371 426.816 337.121C426.816 335.91 427.083 334.816 427.617 333.84C428.151 332.863 428.9 332.03 429.863 331.34C430.827 330.637 431.96 330.103 433.262 329.738C434.564 329.361 435.996 329.172 437.559 329.172C439.642 329.172 441.471 329.543 443.047 330.285C444.635 331.014 445.872 332.043 446.758 333.371C447.643 334.686 448.086 336.216 448.086 337.961H441.758C441.758 337.193 441.595 336.516 441.27 335.93C440.957 335.331 440.475 334.862 439.824 334.523C439.186 334.185 438.385 334.016 437.422 334.016C436.484 334.016 435.697 334.159 435.059 334.445C434.434 334.719 433.958 335.096 433.633 335.578C433.32 336.06 433.164 336.587 433.164 337.16C433.164 337.616 433.281 338.033 433.516 338.41C433.763 338.775 434.115 339.12 434.57 339.445C435.039 339.758 435.612 340.057 436.289 340.344C436.966 340.63 437.741 340.904 438.613 341.164C440.137 341.646 441.484 342.18 442.656 342.766C443.841 343.352 444.837 344.016 445.645 344.758C446.452 345.5 447.057 346.34 447.461 347.277C447.878 348.215 448.086 349.276 448.086 350.461C448.086 351.724 447.839 352.844 447.344 353.82C446.862 354.797 446.159 355.63 445.234 356.32C444.323 356.997 443.229 357.512 441.953 357.863C440.677 358.215 439.251 358.391 437.676 358.391C436.243 358.391 434.831 358.208 433.438 357.844C432.044 357.466 430.781 356.893 429.648 356.125C428.529 355.357 427.63 354.38 426.953 353.195C426.289 351.997 425.957 350.578 425.957 348.938H432.324C432.324 349.797 432.448 350.526 432.695 351.125C432.943 351.711 433.294 352.186 433.75 352.551C434.219 352.915 434.785 353.176 435.449 353.332C436.113 353.488 436.855 353.566 437.676 353.566C438.626 353.566 439.395 353.436 439.98 353.176C440.579 352.902 441.022 352.531 441.309 352.062C441.595 351.594 441.738 351.073 441.738 350.5ZM463.652 334.973L456.309 358H449.512L460.039 329.562H464.336L463.652 334.973ZM469.746 358L462.383 334.973L461.621 329.562H465.977L476.543 358H469.746ZM469.434 347.414V352.336H454.609V347.414H469.434ZM494.121 329.562H500.488V348.234C500.488 350.448 500.02 352.31 499.082 353.82C498.158 355.331 496.868 356.47 495.215 357.238C493.561 358.007 491.647 358.391 489.473 358.391C487.285 358.391 485.358 358.007 483.691 357.238C482.038 356.47 480.736 355.331 479.785 353.82C478.848 352.31 478.379 350.448 478.379 348.234V329.562H484.766V348.234C484.766 349.458 484.948 350.461 485.312 351.242C485.69 352.01 486.23 352.577 486.934 352.941C487.637 353.293 488.483 353.469 489.473 353.469C490.462 353.469 491.302 353.293 491.992 352.941C492.695 352.577 493.223 352.01 493.574 351.242C493.939 350.461 494.121 349.458 494.121 348.234V329.562ZM514.043 358H507.793L507.832 353.078H514.043C515.462 353.078 516.66 352.753 517.637 352.102C518.613 351.438 519.355 350.461 519.863 349.172C520.371 347.87 520.625 346.288 520.625 344.426V343.117C520.625 341.711 520.482 340.474 520.195 339.406C519.909 338.326 519.486 337.421 518.926 336.691C518.366 335.962 517.669 335.415 516.836 335.051C516.016 334.686 515.072 334.504 514.004 334.504H507.676V329.562H514.004C515.931 329.562 517.689 329.888 519.277 330.539C520.879 331.19 522.259 332.121 523.418 333.332C524.59 334.543 525.495 335.975 526.133 337.629C526.771 339.283 527.09 341.125 527.09 343.156V344.426C527.09 346.444 526.771 348.286 526.133 349.953C525.495 351.607 524.59 353.039 523.418 354.25C522.259 355.448 520.885 356.372 519.297 357.023C517.708 357.674 515.957 358 514.043 358ZM511.406 329.562V358H505.039V329.562H511.406ZM542.363 334.973L535.02 358H528.223L538.75 329.562H543.047L542.363 334.973ZM548.457 358L541.094 334.973L540.332 329.562H544.688L555.254 358H548.457ZM548.145 347.414V352.336H533.32V347.414H548.145ZM538.926 328.02L542.793 321.945H549.316L543.906 328.02H538.926ZM566.562 351.691L572.891 329.562H579.98L570.234 358H565.605L566.562 351.691ZM560.801 329.562L567.109 351.691L568.105 358H563.418L553.73 329.562H560.801ZM601.68 353.078V358H586.543V353.078H601.68ZM588.711 329.562V358H582.344V329.562H588.711ZM599.727 341.008V345.773H586.543V341.008H599.727ZM601.699 329.562V334.504H586.543V329.562H601.699ZM623.359 353.078V358H609.004V353.078H623.359ZM611.172 329.562V358H604.805V329.562H611.172Z" fill="black"/>
<circle cx="764.5" cy="514.831" r="20.5" fill="#01BE01"/>
<circle cx="1267" cy="317.331" r="37" fill="#01BE01"/>
<circle cx="873.5" cy="289.831" r="9.5" fill="#01BE01"/>
<circle cx="847" cy="110.331" r="27" fill="#01BE01"/>
<path fill-rule="evenodd" clip-rule="evenodd" d="M0 557.246C12.2736 544.629 22.961 534.887 33.5787 528.411C44.2274 521.915 54.7803 518.721 66.7838 519.248C78.843 519.778 92.532 524.07 109.413 532.855C118.044 537.347 125.088 539.468 130.71 539.436C136.466 539.404 140.719 537.102 143.421 532.975C146.032 528.985 147.047 523.511 146.998 517.317C146.95 511.083 145.821 503.881 143.911 496.23C140.09 480.921 133.075 463.55 124.919 448.014C116.779 432.508 107.408 418.649 98.7973 410.478C93.0803 405.052 87.2551 399.074 81.1666 392.826L81.1662 392.826C59.6679 370.763 34.8875 345.333 0 328.974V333.388C33.1516 349.359 56.9295 373.732 78.0583 395.39L78.0588 395.391C84.2237 401.71 90.163 407.798 96.0439 413.379C104.189 421.109 113.318 434.522 121.377 449.873C129.421 465.195 136.303 482.266 140.03 497.198C141.895 504.667 142.953 511.536 142.998 517.348C143.044 523.201 142.06 527.749 140.074 530.785C138.177 533.683 135.234 535.41 130.688 535.436C126.008 535.462 119.646 533.671 111.259 529.307C94.1061 520.38 79.8258 515.817 66.9592 515.252C54.0369 514.685 42.7075 518.157 31.4957 524.996C21.2938 531.219 11.1693 540.242 0 551.533V557.246Z" fill="#01BE01"/>
<path fill-rule="evenodd" clip-rule="evenodd" d="M1003.43 47.2766C1003.74 32.5908 1006.43 16.5575 1010.88 0H1015.02C1010.46 16.6936 1007.74 32.7644 1007.43 47.3626C1007.02 66.5169 1010.75 82.9426 1019.7 94.9626C1028.61 106.917 1042.88 114.798 1064.19 116.487C1085.56 118.182 1113.92 113.633 1150.7 100.73C1221.4 75.9289 1273.34 67.4796 1311.15 70.4119C1349.04 73.3508 1372.83 87.7415 1386.88 108.601C1400.86 129.356 1404.99 156.201 1404.29 183.682C1403.59 211.192 1398.03 239.599 1392.38 263.675C1389.87 274.408 1386.88 286.079 1383.77 298.261C1383.39 299.749 1383.01 301.244 1382.62 302.746C1379.09 316.559 1375.45 330.964 1372.15 345.411C1365.55 374.333 1360.37 403.294 1360.29 427.861C1360.21 452.523 1365.27 472.176 1378.5 483.165C1390.52 493.147 1409.88 496.462 1440 488.887V493.008C1409.86 500.41 1389.25 497.295 1375.95 486.242C1361.27 474.052 1356.21 452.787 1356.29 427.849C1356.37 402.817 1361.64 373.499 1368.25 344.521C1371.56 330.019 1375.22 315.57 1378.75 301.756L1379.09 300.423L1379.89 297.273C1383.01 285.083 1385.98 273.454 1388.49 262.762C1394.12 238.76 1399.6 210.673 1400.29 183.58C1400.99 156.458 1396.87 130.593 1383.56 110.836C1370.32 91.1847 1347.76 77.2642 1310.84 74.4C1273.83 71.5293 1222.49 79.785 1152.03 104.505C1114.98 117.501 1086.03 122.231 1063.88 120.475C1041.67 118.714 1026.22 110.415 1016.49 97.3519C1006.81 84.3544 1003.01 66.9247 1003.43 47.2766Z" fill="#01BE01"/>
</svg>
