<svg width="1440" height="722" viewBox="0 0 1440 722" fill="none" xmlns="http://www.w3.org/2000/svg">
<rect y="83" width="1440" height="639" fill="#F1FFEA" fill-opacity="0.66"/>
<circle cx="751.5" cy="613.69" r="20.5" fill="#94EE6A"/>
<circle cx="1254" cy="416.19" r="37" fill="#94EE6A"/>
<circle cx="860.5" cy="388.69" r="9.5" fill="#94EE6A"/>
<circle cx="834" cy="209.19" r="27" fill="#94EE6A"/>
<path d="M205.368 365V331.4H212.568V365H205.368ZM208.68 351.656V345.416H226.104V351.656H208.68ZM208.68 337.88V331.4H228.12V337.88H208.68ZM234.806 365V331.4H257.462V337.736H241.862V358.664H257.798V365H234.806ZM238.166 350.936V344.792H255.158V350.936H238.166ZM264.41 365V358.808H270.026V337.592H264.41V331.4H282.794V337.592H277.226V358.808H282.794V365H264.41ZM297.641 365V337.88H287.945V331.4H314.921V337.88H304.841V365H297.641ZM334.295 365.48C331.831 365.48 329.543 365.048 327.431 364.184C325.351 363.32 323.543 362.12 322.007 360.584C320.503 359.016 319.319 357.176 318.455 355.064C317.623 352.952 317.207 350.632 317.207 348.104C317.207 345.608 317.623 343.304 318.455 341.192C319.319 339.08 320.503 337.24 322.007 335.672C323.543 334.104 325.351 332.888 327.431 332.024C329.543 331.16 331.831 330.728 334.295 330.728C336.759 330.728 339.015 331.16 341.063 332.024C343.143 332.888 344.951 334.104 346.487 335.672C348.023 337.24 349.207 339.08 350.039 341.192C350.903 343.304 351.335 345.624 351.335 348.152C351.335 350.616 350.903 352.904 350.039 355.016C349.207 357.128 348.023 358.968 346.487 360.536C344.951 362.104 343.143 363.32 341.063 364.184C339.015 365.048 336.759 365.48 334.295 365.48ZM334.295 358.664C335.703 358.664 336.999 358.408 338.183 357.896C339.367 357.352 340.391 356.616 341.255 355.688C342.151 354.728 342.839 353.608 343.319 352.328C343.799 351.048 344.039 349.656 344.039 348.152C344.039 346.616 343.799 345.208 343.319 343.928C342.839 342.648 342.151 341.528 341.255 340.568C340.391 339.608 339.367 338.872 338.183 338.36C336.999 337.816 335.703 337.544 334.295 337.544C332.887 337.544 331.575 337.816 330.359 338.36C329.175 338.872 328.135 339.608 327.239 340.568C326.375 341.496 325.703 342.616 325.223 343.928C324.743 345.208 324.503 346.616 324.503 348.152C324.503 350.168 324.919 351.976 325.751 353.576C326.615 355.144 327.783 356.392 329.255 357.32C330.727 358.216 332.407 358.664 334.295 358.664ZM372.524 365V331.4H386.78C388.796 331.4 390.604 331.88 392.204 332.84C393.804 333.768 395.068 335.048 395.996 336.68C396.956 338.28 397.436 340.104 397.436 342.152C397.436 344.232 396.956 346.12 395.996 347.816C395.068 349.48 393.804 350.808 392.204 351.8C390.604 352.76 388.796 353.24 386.78 353.24H379.724V365H372.524ZM379.628 346.712H386.012C386.748 346.712 387.42 346.52 388.028 346.136C388.636 345.752 389.132 345.224 389.516 344.552C389.9 343.88 390.092 343.112 390.092 342.248C390.092 341.384 389.9 340.632 389.516 339.992C389.132 339.352 388.636 338.84 388.028 338.456C387.42 338.072 386.748 337.88 386.012 337.88H379.628V346.712ZM396.759 365L409.959 331.4H416.391L429.495 365H422.151L415.335 346.904C415.143 346.36 414.903 345.688 414.615 344.888C414.359 344.088 414.087 343.24 413.799 342.344C413.511 341.448 413.239 340.6 412.983 339.8C412.759 338.968 412.567 338.296 412.407 337.784L413.703 337.736C413.511 338.44 413.287 339.192 413.031 339.992C412.807 340.76 412.551 341.56 412.263 342.392C412.007 343.224 411.735 344.024 411.447 344.792C411.191 345.56 410.935 346.296 410.679 347L403.911 365H396.759ZM402.903 357.944L405.303 352.088H420.615L423.063 357.944H402.903ZM434.259 365V331.4H449.139C451.251 331.4 453.139 331.864 454.803 332.792C456.499 333.72 457.843 335 458.835 336.632C459.827 338.232 460.323 340.072 460.323 342.152C460.323 344.168 459.827 345.992 458.835 347.624C457.843 349.256 456.499 350.552 454.803 351.512C453.139 352.472 451.251 352.952 449.139 352.952H441.171V365H434.259ZM453.363 365L444.819 349.784L452.163 348.584L461.667 365.048L453.363 365ZM441.171 347.048H448.851C449.715 347.048 450.467 346.856 451.107 346.472C451.779 346.056 452.291 345.496 452.643 344.792C453.027 344.088 453.219 343.288 453.219 342.392C453.219 341.464 452.995 340.648 452.547 339.944C452.099 339.208 451.475 338.648 450.675 338.264C449.875 337.848 448.947 337.64 447.891 337.64H441.171V347.048ZM463.931 365L477.131 331.4H483.563L496.667 365H489.323L482.507 346.904C482.315 346.36 482.075 345.688 481.787 344.888C481.531 344.088 481.259 343.24 480.971 342.344C480.683 341.448 480.411 340.6 480.155 339.8C479.931 338.968 479.739 338.296 479.579 337.784L480.875 337.736C480.683 338.44 480.459 339.192 480.203 339.992C479.979 340.76 479.723 341.56 479.435 342.392C479.179 343.224 478.907 344.024 478.619 344.792C478.363 345.56 478.107 346.296 477.851 347L471.083 365H463.931ZM470.075 357.944L472.475 352.088H487.787L490.235 357.944H470.075ZM523.062 365V337.88H513.366V331.4H540.342V337.88H530.262V365H523.062ZM546.29 365V331.4H568.946V337.736H553.346V358.664H569.282V365H546.29ZM549.65 350.936V344.792H566.642V350.936H549.65ZM201.384 425L214.584 391.4H221.016L234.12 425H226.776L219.96 406.904C219.768 406.36 219.528 405.688 219.24 404.888C218.984 404.088 218.712 403.24 218.424 402.344C218.136 401.448 217.864 400.6 217.608 399.8C217.384 398.968 217.192 398.296 217.032 397.784L218.328 397.736C218.136 398.44 217.912 399.192 217.656 399.992C217.432 400.76 217.176 401.56 216.888 402.392C216.632 403.224 216.36 404.024 216.072 404.792C215.816 405.56 215.56 406.296 215.304 407L208.536 425H201.384ZM207.528 417.944L209.928 412.088H225.24L227.688 417.944H207.528ZM246.996 425.48C245.812 425.48 244.692 425.336 243.636 425.048C242.612 424.792 241.652 424.392 240.756 423.848C239.892 423.304 239.108 422.664 238.404 421.928C237.7 421.16 237.108 420.328 236.628 419.432L240.852 415.016C241.556 416.008 242.196 416.792 242.772 417.368C243.38 417.912 243.972 418.296 244.548 418.52C245.156 418.744 245.796 418.856 246.468 418.856C247.364 418.856 248.148 418.648 248.82 418.232C249.492 417.816 250.02 417.24 250.404 416.504C250.788 415.768 250.98 414.936 250.98 414.008V397.784H244.788V391.4H263.172V397.784H257.988V414.776C257.988 416.376 257.716 417.832 257.172 419.144C256.628 420.456 255.86 421.576 254.868 422.504C253.876 423.432 252.708 424.168 251.364 424.712C250.052 425.224 248.596 425.48 246.996 425.48ZM284.348 425.288C281.628 425.288 279.196 424.728 277.052 423.608C274.94 422.456 273.276 420.888 272.06 418.904C270.844 416.888 270.236 414.616 270.236 412.088V391.352H277.436V411.656C277.436 413 277.74 414.216 278.348 415.304C278.988 416.36 279.836 417.208 280.892 417.848C281.948 418.488 283.1 418.808 284.348 418.808C285.66 418.808 286.844 418.488 287.9 417.848C288.988 417.208 289.836 416.36 290.444 415.304C291.084 414.216 291.404 413 291.404 411.656V391.352H298.364V412.088C298.364 414.616 297.756 416.888 296.54 418.904C295.356 420.888 293.708 422.456 291.596 423.608C289.484 424.728 287.068 425.288 284.348 425.288ZM306.806 425V391.4H320.63C323.062 391.4 325.286 391.816 327.302 392.648C329.318 393.448 331.046 394.6 332.486 396.104C333.926 397.576 335.03 399.352 335.798 401.432C336.566 403.48 336.95 405.736 336.95 408.2C336.95 410.696 336.566 412.968 335.798 415.016C335.03 417.064 333.926 418.84 332.486 420.344C331.046 421.816 329.318 422.968 327.302 423.8C325.318 424.6 323.094 425 320.63 425H306.806ZM314.006 419.72L313.238 418.52H320.39C321.83 418.52 323.11 418.28 324.23 417.8C325.382 417.32 326.358 416.632 327.158 415.736C327.99 414.808 328.614 413.72 329.03 412.472C329.446 411.192 329.654 409.768 329.654 408.2C329.654 406.632 329.446 405.224 329.03 403.976C328.614 402.696 327.99 401.608 327.158 400.712C326.358 399.784 325.382 399.08 324.23 398.6C323.11 398.12 321.83 397.88 320.39 397.88H313.094L314.006 396.776V419.72ZM338.54 425L351.74 391.4H358.172L371.276 425H363.932L357.116 406.904C356.924 406.36 356.684 405.688 356.396 404.888C356.14 404.088 355.868 403.24 355.58 402.344C355.292 401.448 355.02 400.6 354.764 399.8C354.54 398.968 354.348 398.296 354.188 397.784L355.484 397.736C355.292 398.44 355.068 399.192 354.812 399.992C354.588 400.76 354.332 401.56 354.044 402.392C353.788 403.224 353.516 404.024 353.228 404.792C352.972 405.56 352.716 406.296 352.46 407L345.692 425H338.54ZM344.684 417.944L347.084 412.088H362.396L364.844 417.944H344.684ZM376.04 425V391.4H390.92C393.032 391.4 394.92 391.864 396.584 392.792C398.28 393.72 399.624 395 400.616 396.632C401.608 398.232 402.104 400.072 402.104 402.152C402.104 404.168 401.608 405.992 400.616 407.624C399.624 409.256 398.28 410.552 396.584 411.512C394.92 412.472 393.032 412.952 390.92 412.952H382.952V425H376.04ZM395.144 425L386.6 409.784L393.944 408.584L403.448 425.048L395.144 425ZM382.952 407.048H390.632C391.496 407.048 392.248 406.856 392.888 406.472C393.56 406.056 394.072 405.496 394.424 404.792C394.808 404.088 395 403.288 395 402.392C395 401.464 394.776 400.648 394.328 399.944C393.88 399.208 393.256 398.648 392.456 398.264C391.656 397.848 390.728 397.64 389.672 397.64H382.952V407.048ZM420.384 425L433.584 391.4H440.016L453.12 425H445.776L438.96 406.904C438.768 406.36 438.528 405.688 438.24 404.888C437.984 404.088 437.712 403.24 437.424 402.344C437.136 401.448 436.864 400.6 436.608 399.8C436.384 398.968 436.192 398.296 436.032 397.784L437.328 397.736C437.136 398.44 436.912 399.192 436.656 399.992C436.432 400.76 436.176 401.56 435.888 402.392C435.632 403.224 435.36 404.024 435.072 404.792C434.816 405.56 434.56 406.296 434.304 407L427.536 425H420.384ZM426.528 417.944L428.928 412.088H444.24L446.688 417.944H426.528ZM472.556 425V391.4H479.132L491.324 411.272L487.052 411.224L499.436 391.4H505.772V425H498.716V413.624C498.716 410.712 498.78 408.088 498.908 405.752C499.068 403.416 499.324 401.112 499.676 398.84L500.492 401.096L490.652 416.312H487.436L477.836 401.192L478.604 398.84C478.988 400.984 479.244 403.192 479.372 405.464C479.532 407.736 479.612 410.456 479.612 413.624V425H472.556ZM510.478 425L523.678 391.4H530.11L543.214 425H535.87L529.054 406.904C528.862 406.36 528.622 405.688 528.334 404.888C528.078 404.088 527.806 403.24 527.518 402.344C527.23 401.448 526.958 400.6 526.702 399.8C526.478 398.968 526.286 398.296 526.126 397.784L527.422 397.736C527.23 398.44 527.006 399.192 526.75 399.992C526.526 400.76 526.27 401.56 525.982 402.392C525.726 403.224 525.454 404.024 525.166 404.792C524.91 405.56 524.654 406.296 524.398 407L517.63 425H510.478ZM516.622 417.944L519.022 412.088H534.334L536.782 417.944H516.622ZM547.977 425V391.4H554.409L573.033 416.552H571.737C571.513 414.92 571.321 413.304 571.161 411.704C571.001 410.072 570.889 408.344 570.825 406.52C570.793 404.696 570.777 402.664 570.777 400.424V391.4H577.785V425H571.257L552.297 399.704H554.025C554.249 401.816 554.425 403.56 554.553 404.936C554.681 406.312 554.777 407.464 554.841 408.392C554.905 409.288 554.953 410.088 554.985 410.792C555.017 411.496 555.033 412.232 555.033 413V425H547.977ZM593.469 425V397.88H583.773V391.4H610.749V397.88H600.669V425H593.469ZM616.696 425V391.4H639.352V397.736H623.752V418.664H639.688V425H616.696ZM620.056 410.936V404.792H637.048V410.936H620.056ZM647.165 425V391.4H662.045C664.157 391.4 666.045 391.864 667.709 392.792C669.405 393.72 670.749 395 671.741 396.632C672.733 398.232 673.229 400.072 673.229 402.152C673.229 404.168 672.733 405.992 671.741 407.624C670.749 409.256 669.405 410.552 667.709 411.512C666.045 412.472 664.157 412.952 662.045 412.952H654.077V425H647.165ZM666.269 425L657.725 409.784L665.069 408.584L674.573 425.048L666.269 425ZM654.077 407.048H661.757C662.621 407.048 663.373 406.856 664.013 406.472C664.685 406.056 665.197 405.496 665.549 404.792C665.933 404.088 666.125 403.288 666.125 402.392C666.125 401.464 665.901 400.648 665.453 399.944C665.005 399.208 664.381 398.648 663.581 398.264C662.781 397.848 661.853 397.64 660.797 397.64H654.077V407.048ZM219.192 485.288C216.472 485.288 214.04 484.728 211.896 483.608C209.784 482.456 208.12 480.888 206.904 478.904C205.688 476.888 205.08 474.616 205.08 472.088V451.352H212.28V471.656C212.28 473 212.584 474.216 213.192 475.304C213.832 476.36 214.68 477.208 215.736 477.848C216.792 478.488 217.944 478.808 219.192 478.808C220.504 478.808 221.688 478.488 222.744 477.848C223.832 477.208 224.68 476.36 225.288 475.304C225.928 474.216 226.248 473 226.248 471.656V451.352H233.208V472.088C233.208 474.616 232.6 476.888 231.384 478.904C230.2 480.888 228.552 482.456 226.44 483.608C224.328 484.728 221.912 485.288 219.192 485.288ZM241.649 485V451.4H248.225L260.417 471.272L256.145 471.224L268.529 451.4H274.865V485H267.809V473.624C267.809 470.712 267.873 468.088 268.001 465.752C268.161 463.416 268.417 461.112 268.769 458.84L269.585 461.096L259.745 476.312H256.529L246.929 461.192L247.697 458.84C248.081 460.984 248.337 463.192 248.465 465.464C248.625 467.736 248.705 470.456 248.705 473.624V485H241.649ZM279.572 485L292.772 451.4H299.204L312.308 485H304.964L298.148 466.904C297.956 466.36 297.716 465.688 297.428 464.888C297.172 464.088 296.9 463.24 296.612 462.344C296.324 461.448 296.052 460.6 295.796 459.8C295.572 458.968 295.38 458.296 295.22 457.784L296.516 457.736C296.324 458.44 296.1 459.192 295.844 459.992C295.62 460.76 295.364 461.56 295.076 462.392C294.82 463.224 294.548 464.024 294.26 464.792C294.004 465.56 293.748 466.296 293.492 467L286.724 485H279.572ZM285.716 477.944L288.116 472.088H303.427L305.876 477.944H285.716ZM341.343 485L327.903 451.4H335.583L342.543 469.496C342.927 470.488 343.263 471.384 343.551 472.184C343.839 472.952 344.079 473.672 344.271 474.344C344.495 474.984 344.703 475.624 344.895 476.264C345.087 476.872 345.295 477.544 345.519 478.28L344.079 478.328C344.367 477.304 344.639 476.376 344.895 475.544C345.151 474.68 345.439 473.784 345.759 472.856C346.079 471.896 346.479 470.776 346.959 469.496L353.583 451.4H361.167L347.631 485H341.343ZM365.238 485V478.808H370.854V457.592H365.238V451.4H383.622V457.592H378.054V478.808H383.622V485H365.238ZM391.509 485V451.4H405.333C407.765 451.4 409.989 451.816 412.005 452.648C414.021 453.448 415.749 454.6 417.189 456.104C418.629 457.576 419.733 459.352 420.501 461.432C421.269 463.48 421.653 465.736 421.653 468.2C421.653 470.696 421.269 472.968 420.501 475.016C419.733 477.064 418.629 478.84 417.189 480.344C415.749 481.816 414.021 482.968 412.005 483.8C410.021 484.6 407.797 485 405.333 485H391.509ZM398.709 479.72L397.941 478.52H405.093C406.533 478.52 407.813 478.28 408.933 477.8C410.085 477.32 411.061 476.632 411.861 475.736C412.693 474.808 413.317 473.72 413.733 472.472C414.149 471.192 414.357 469.768 414.357 468.2C414.357 466.632 414.149 465.224 413.733 463.976C413.317 462.696 412.693 461.608 411.861 460.712C411.061 459.784 410.085 459.08 408.933 458.6C407.813 458.12 406.533 457.88 405.093 457.88H397.797L398.709 456.776V479.72ZM423.243 485L436.443 451.4H442.875L455.979 485H448.635L441.819 466.904C441.627 466.36 441.387 465.688 441.099 464.888C440.843 464.088 440.571 463.24 440.283 462.344C439.995 461.448 439.723 460.6 439.467 459.8C439.243 458.968 439.051 458.296 438.891 457.784L440.187 457.736C439.995 458.44 439.771 459.192 439.515 459.992C439.291 460.76 439.035 461.56 438.747 462.392C438.491 463.224 438.219 464.024 437.931 464.792C437.675 465.56 437.419 466.296 437.163 467L430.395 485H423.243ZM429.387 477.944L431.787 472.088H447.099L449.547 477.944H429.387ZM486.311 485.48C483.175 485.48 480.487 484.92 478.247 483.8C476.039 482.648 474.135 480.984 472.535 478.808L477.047 473.72C478.615 475.896 480.167 477.384 481.703 478.184C483.271 478.952 484.951 479.336 486.743 479.336C487.735 479.336 488.615 479.192 489.383 478.904C490.183 478.616 490.807 478.216 491.255 477.704C491.735 477.192 491.975 476.6 491.975 475.928C491.975 475.416 491.863 474.952 491.639 474.536C491.415 474.088 491.095 473.704 490.679 473.384C490.263 473.032 489.767 472.728 489.191 472.472C488.615 472.184 487.975 471.944 487.271 471.752C486.567 471.56 485.799 471.384 484.967 471.224C483.175 470.84 481.607 470.344 480.263 469.736C478.919 469.128 477.799 468.392 476.903 467.528C476.007 466.664 475.335 465.672 474.887 464.552C474.471 463.4 474.263 462.12 474.263 460.712C474.263 458.728 474.823 457 475.943 455.528C477.063 454.024 478.551 452.856 480.407 452.024C482.263 451.16 484.311 450.728 486.551 450.728C489.591 450.728 492.087 451.24 494.039 452.264C496.023 453.288 497.607 454.728 498.791 456.584L494.183 461.096C493.191 459.72 492.055 458.68 490.775 457.976C489.495 457.272 488.119 456.92 486.647 456.92C485.623 456.92 484.711 457.064 483.911 457.352C483.143 457.608 482.551 458.008 482.135 458.552C481.719 459.064 481.511 459.672 481.511 460.376C481.511 460.952 481.655 461.464 481.943 461.912C482.231 462.36 482.631 462.76 483.143 463.112C483.687 463.432 484.343 463.72 485.111 463.976C485.879 464.232 486.727 464.44 487.655 464.6C489.415 464.952 490.999 465.432 492.407 466.04C493.815 466.616 495.015 467.32 496.007 468.152C497.031 468.984 497.815 469.944 498.359 471.032C498.903 472.12 499.175 473.336 499.175 474.68C499.175 476.952 498.631 478.888 497.543 480.488C496.455 482.088 494.951 483.32 493.031 484.184C491.111 485.048 488.871 485.48 486.311 485.48ZM501.712 485L514.912 451.4H521.344L534.448 485H527.104L520.288 466.904C520.096 466.36 519.856 465.688 519.568 464.888C519.312 464.088 519.04 463.24 518.752 462.344C518.464 461.448 518.192 460.6 517.936 459.8C517.712 458.968 517.52 458.296 517.36 457.784L518.656 457.736C518.464 458.44 518.24 459.192 517.984 459.992C517.76 460.76 517.504 461.56 517.216 462.392C516.96 463.224 516.688 464.024 516.4 464.792C516.144 465.56 515.888 466.296 515.632 467L508.864 485H501.712ZM507.856 477.944L510.256 472.088H525.568L528.016 477.944H507.856ZM552.098 485.288C549.378 485.288 546.946 484.728 544.802 483.608C542.69 482.456 541.026 480.888 539.81 478.904C538.594 476.888 537.986 474.616 537.986 472.088V451.352H545.186V471.656C545.186 473 545.49 474.216 546.098 475.304C546.738 476.36 547.586 477.208 548.642 477.848C549.698 478.488 550.85 478.808 552.098 478.808C553.41 478.808 554.594 478.488 555.65 477.848C556.738 477.208 557.586 476.36 558.194 475.304C558.834 474.216 559.154 473 559.154 471.656V451.352H566.114V472.088C566.114 474.616 565.506 476.888 564.29 478.904C563.106 480.888 561.458 482.456 559.346 483.608C557.234 484.728 554.818 485.288 552.098 485.288ZM574.556 485V451.4H588.38C590.812 451.4 593.036 451.816 595.052 452.648C597.068 453.448 598.796 454.6 600.236 456.104C601.676 457.576 602.78 459.352 603.548 461.432C604.316 463.48 604.7 465.736 604.7 468.2C604.7 470.696 604.316 472.968 603.548 475.016C602.78 477.064 601.676 478.84 600.236 480.344C598.796 481.816 597.068 482.968 595.052 483.8C593.068 484.6 590.844 485 588.38 485H574.556ZM581.756 479.72L580.988 478.52H588.14C589.58 478.52 590.86 478.28 591.98 477.8C593.132 477.32 594.108 476.632 594.908 475.736C595.74 474.808 596.364 473.72 596.78 472.472C597.196 471.192 597.404 469.768 597.404 468.2C597.404 466.632 597.196 465.224 596.78 463.976C596.364 462.696 595.74 461.608 594.908 460.712C594.108 459.784 593.132 459.08 591.98 458.6C590.86 458.12 589.58 457.88 588.14 457.88H580.844L581.756 456.776V479.72ZM606.29 485L619.49 451.4H625.922L639.026 485H631.682L624.866 466.904C624.674 466.36 624.434 465.688 624.146 464.888C623.89 464.088 623.618 463.24 623.33 462.344C623.042 461.448 622.77 460.6 622.514 459.8C622.29 458.968 622.098 458.296 621.938 457.784L623.234 457.736C623.042 458.44 622.818 459.192 622.562 459.992C622.338 460.76 622.082 461.56 621.794 462.392C621.538 463.224 621.266 464.024 620.978 464.792C620.722 465.56 620.466 466.296 620.21 467L613.442 485H606.29ZM612.434 477.944L614.834 472.088H630.146L632.594 477.944H612.434ZM618.77 449L617.138 445.592L626.738 440.072L629.234 445.304L618.77 449ZM649.781 485L636.341 451.4H644.021L650.981 469.496C651.365 470.488 651.701 471.384 651.989 472.184C652.277 472.952 652.517 473.672 652.709 474.344C652.933 474.984 653.141 475.624 653.333 476.264C653.525 476.872 653.733 477.544 653.957 478.28L652.517 478.328C652.805 477.304 653.077 476.376 653.333 475.544C653.589 474.68 653.877 473.784 654.197 472.856C654.517 471.896 654.917 470.776 655.397 469.496L662.021 451.4H669.605L656.069 485H649.781ZM674.54 485V451.4H697.196V457.736H681.596V478.664H697.532V485H674.54ZM677.9 470.936V464.792H694.892V470.936H677.9ZM705.009 485V451.4H712.209V478.52H727.425V485H705.009Z" fill="#1D1D1D"/>
<path d="M-58 701.19C9.71959 629.94 29.2675 594.516 97.3362 629.94C165.405 665.363 117.931 542.588 84.4206 510.787C50.9099 478.986 14.6066 429.473 -55.5565 416.19" stroke="#94EE6A" stroke-width="4"/>
<path d="M1436.5 587.189C1294.56 629.914 1354.9 458.233 1377.44 362.077C1399.97 265.921 1420.68 102.433 1138.37 201.476C990.718 253.274 975.126 172.11 1004.9 82.5" stroke="#94EE6A" stroke-width="4"/>
</svg>
